<svg xmlns="http://www.w3.org/2000/svg" viewBox="0 0 128 128">
  <rect width="128" height="128" rx="28" fill="#1c1c1c"/>
  <svg x="17.945" y="14" width="92.11" height="100" viewBox="0 0 117.9 128">
    <path fill="#FAFAFA" d="m113.9 42.6c-3.7-11.3-10.8-21.2-20.1-28.6-7.4-5.7-16.1-10-25.4-11.5-6.5-0.9-9.4-1.1-15.9-0.3-7.4 0.9-14.3 3.4-20.7 7-15.4 9.1-27.6 26.2-29.8 44.5-0.3 2.9-0.4 5.8-0.2 8.7 0.7 15.5 9.7 33.2 27.2 44.1l3.9 2.2c1.5 1.3 2.9 1.8 5.1 1.3 3.5-0.9 5.1-6.1 0.1-8.6-7.3-3.5-13.7-8.7-18.1-14.6-5-7-9-15.8-9.3-26.9-0.2-10 3.5-21.4 11.6-31.3 4.5-5.2 10.5-9.8 16.4-12.7 10.1-4.9 20.5-6.6 31.2-3.8 13.2 3.5 25.6 13.1 32.3 26.5 2.3 4.9 4.2 10.7 4.9 17.4 0.9 9.9-1.4 19.2-6.9 27.4-4.3 6.5-9.2 11-16.1 15.8l-4.1 2.1c-4.4 2.4-3.2 9.4 2.8 9 1.2 0 2.5-0.8 3.6-1.4 3.9-2 7.5-4.3 10.8-7 9.4-8 17.6-20.3 19.1-36.8 0.6-7.4-0.4-15.6-2.4-22.5z"/>
    <path fill="#2266ea" d="m88.1 42.8c-3.6 0.3-7.4 2.9-9 7.3-5.5 0.8-14.1 3.6-20.3 12-4.3-6.3-11.6-10.7-19.7-12-1.1-3.8-5-7.5-10.2-7.2-4.1 0.4-8.7 3.8-8.7 9.7 0.2 6 5.7 10.3 11.1 9.3 2.8-0.3 5.2-2 6.6-4.3 6.7 1 14.9 4.7 17.3 14.1v36.7c-3.2 1.5-5.5 4.7-5.5 8.4 0 4.8 3.7 9.3 9.4 9.3s9.5-4.5 9.4-9.1c0.1-3.6-2.3-7.3-5.8-8.7v-36.4c1-5.6 5.9-10.9 13.3-13.3l3.9-1c1.8 2.9 4.9 4.6 8.6 4.5 4.6-0.2 9.3-3.6 9.3-9.5 0-5.6-4.9-10-9.7-9.8z"/>
  </svg>
</svg>
